<svg version="1" xmlns="http://www.w3.org/2000/svg" width="2666.667" height="2666.667" viewBox="0 0 2000.000000 2000.000000"><path d="M1391.9 442.4c-.2.2-4.7.6-9.9 1-5.2.3-10.6.8-12 1-1.4.2-5.2.7-8.5 1.1-3.2.4-6.8.9-7.9 1.1-1.1.2-3.6.6-5.6.9-3.5.5-26 5.2-29.2 6-1 .3-2.6.7-3.5.9-13.2 3.4-36.8 11.1-39 12.9-.7.5-1.3.7-1.3.4 0-1.1-30 12.7-41.5 19.1-39.9 22-69.8 46.2-97 78.4-10.4 12.3-9.8 11.5-16 20.3-28.4 39.9-48.2 85.2-57.1 131-.4 2.2-.8 4.2-.9 4.5-.2.8-1.6 10.2-2.1 14-.3 1.9-.6 4.4-.9 5.5-3.1 15.4-2.6 77.4.8 98 .3 1.6.8 5.2 1.2 8 .3 2.7 1.7 9.9 3.1 16 1.3 6 2.6 11.9 2.8 13 2.2 11.3 12.2 38.3 20.3 54.8 6.5 13.3 19.8 35.7 26 43.7 17.9 23.3 32.6 38.5 53.8 55.3 15.1 12 40 26.6 59.5 34.9 15.9 6.8 41.2 14.8 56 17.7 3 .6 6.6 1.4 8 1.7 4.6.9 20.4 3.3 28 4.1 9.1 1 54.8 1 64.5 0 7.1-.7 14.7-1.7 17.5-2.2.8-.1 4-.6 7-1s6.2-.9 7-1.1c.8-.2 5.6-1.2 10.5-2.3 5-1.1 12.4-2.9 16.5-4.1 4.1-1.2 8.2-2.3 9-2.5 14.5-3.6 43.9-16.5 61.5-27 4.2-2.5 7.9-4.5 8.2-4.5 1 0-25.7 35.9-40.8 54.7-6.1 7.6-12.3 15.3-13.7 17.2-1.5 1.8-4 5-5.7 7-6.8 8.4-11.1 13.8-52.9 66.1-24 30-44.9 56.1-46.5 58-1.5 1.9-11.3 14.1-21.6 27s-20.3 25.5-22.3 27.9c-2.1 2.4-4.3 5.4-5.1 6.5-.8 1.2-1.7 2.3-2.1 2.6-.3.3-2.8 3.4-5.5 6.9-2.8 3.5-5.7 7.1-6.5 8-.8 1-3.7 4.6-6.5 8.2-2.7 3.5-5.2 6.6-5.5 6.9-.4.3-20.4 25.2-44.6 55.5-50.4 63.1-45.3 56.9-49.6 62.1-1.8 2.2-4.7 5.8-6.4 8-1.8 2.1-10.7 13.2-19.8 24.7l-16.7 20.7 90.8-.1c98.7-.1 97.8-.1 116.4-5.9 16.4-5.1 32.9-14.9 43.9-26 4.3-4.3 20.2-25.8 29-39 .5-.8 2.9-4.2 5.2-7.5 2.4-3.3 16.7-23.6 31.8-45.2 15.1-21.6 28.1-40 28.8-41 13.2-18.7 17.2-24.5 17.2-25.3 0-.4.4-1 .8-1.2.7-.2 34.1-47.5 57.8-81.6 3.3-4.8 10.5-15 15.9-22.7 75.5-107.2 93.7-134.2 110.5-164 7.3-13 11-19.8 11-20.5 0-.5.3-1 .8-1.2 2-.9 19.4-38.8 28.7-62.8 9-22.9 19.6-59.9 23.4-81.5.6-3.3 1.3-7.1 1.6-8.5.3-1.4.7-4.1 1-6 .3-1.9.7-4.6 1-6 .6-3.1 1.3-8.8 2.1-16.5.3-3.3.8-7.4 1-9 1-8 1.9-31.9 1.9-48.5-.1-33.5-2.2-55.5-8.1-84.8-7.3-36.5-21.6-75.2-38.1-103-2.3-4.1-4.3-7.6-4.3-7.9 0-1.1-15.6-23.2-22.5-31.9-8.9-11.2-14.7-17.5-25-27.5-13.1-12.7-15.4-14.7-29-24.8-50.2-37.7-108.7-59.9-175-66.6-3.3-.4-7.1-.9-8.5-1.2-2.9-.6-66.5-1.5-67.1-.9zm48.6 148.9c1.1.3 4.3.7 7 1.1 26.4 3.6 54.3 13.8 75 27.5 5.8 3.8 15.6 11.5 22.4 17.6 4 3.6 18.1 20 18.1 21.1 0 .4.9 1.7 1.9 2.8 2.9 3.2 11.4 18.5 15 27.2 1.8 4.4 3.7 8.8 4.2 9.9.9 2 5.7 18.3 6.5 22 1.3 5.9 3.5 19.9 4.2 26 .9 9.2.9 42.2-.1 50.7-2.1 19.3-8.7 43.2-16.3 59.3-3.2 6.9-11.2 20.9-13.6 24-14.1 18-22 26.1-35 35.9-16.1 12.1-43.6 25.1-61.3 29.1-.5.1-2.1.5-3.5.8-20.5 5.3-63.9 6.9-88 3.1-3.1-.4-9.3-1.6-17-3-9.5-1.8-27.6-8.1-37.8-13.3-20.4-10.2-34.9-22-49.7-40.2-3.7-4.6-12.6-19.4-16.2-26.9-6.6-14-12.3-33.6-15.7-54.4-2.8-16.4-2.8-66.5-.1-74.9.2-.7.6-3.2.9-5.7.8-5.9 5-21.3 8.8-31.8 12.3-34 34.9-62.5 64.6-81.7 15.4-9.9 38.7-19.3 56.7-22.9 12.4-2.4 13.5-2.6 21.5-3.2 4.1-.4 7.7-.8 7.8-1 .6-.4 37.3.4 39.7.9zM553.5 454c-2.4 2.3-10.3 9.1-16.9 14.5-2.7 2.2-5.4 4.5-6 5-.6.6-5.6 4.8-11.1 9.5-5.5 4.6-12.9 10.9-16.5 14-3.6 3.2-9.9 8.6-14.1 12.1-14.4 12.1-32.4 27.4-35.4 30-3.5 3.1-50.3 42.9-57.1 48.5-2.6 2.2-5.3 4.5-6.1 5.3-.8.7-3.3 2.9-5.6 4.8-10.7 8.9-14.5 12.1-19.2 16.3-2.8 2.5-6.2 5.4-7.6 6.5-5.6 4.7-14.4 12-14.9 12.5-.3.3-6.8 5.9-14.5 12.4s-15.9 13.5-18.2 15.5c-2.3 2-20.4 17.3-40.2 34.1-19.8 16.8-36 30.9-36 31.3-.1.4 6.7 10.1 15.1 21.5 8.3 11.4 17.9 24.5 21.2 29.1 3.4 4.6 7.8 10.7 9.8 13.5 2.1 2.8 5.1 7 6.7 9.3 4.8 6.8 9.3 11.3 15.1 15.2 11.8 7.9 20.4 10.2 36 9.7 12.3-.4 18.9-2.1 27.4-7.1 3.6-2.1 35.2-27.9 52.6-42.8 1.4-1.2 12-10.1 23.5-19.7 11.6-9.6 21.9-18.2 23-19.2 1.1-.9 5.2-4.3 9-7.5 3.9-3.2 8.1-6.8 9.5-8 1.4-1.2 10.2-8.5 19.5-16.3 9.4-7.8 18.2-15.3 19.7-16.6 1.5-1.3 3-2.4 3.3-2.4.3 0 .3 5.5 0 12.2-1.3 28-1.4 57-1.5 361V1376H417c-84.9 0-107 .3-107.1 1.2 0 .7-.1 31.1-.2 67.6l-.2 66.2H895v-135H705V452h-74.7c-72.2.1-74.9.1-76.8 2z"/></svg>