<svg version="1" xmlns="http://www.w3.org/2000/svg" width="1333.333" height="1333.333" viewBox="0 0 1000.000000 1000.000000"><path d="M291.5 34.9c-38.4 6.8-70.7 30.9-91.1 68.1-2.8 5.1-10.4 22-10.4 23.2 0 .3 3.9 2 8.8 3.8 4.8 1.7 10.6 4 12.8 5 8.3 3.8 8.9 3.7 10.9-1.7 4.5-12.1 13.8-27.8 22.1-37.2 12.5-14.3 33.3-26.7 49.3-29.6 1.4-.2 4.8-.9 7.5-1.4 10.1-1.9 34.9-.2 45.6 3.1 24.5 7.6 40.3 20.4 50.8 41.4 7.2 14.2 10.1 28.7 9.7 47.2-.2 6.5-.6 12.6-.8 13.7-.3 1.1-1.2 4.7-2 8-4.9 20.6-19.1 45.1-42.5 73.3-6.7 8.1-9.4 11.4-16.3 20.2-2.8 3.6-5.8 7.4-6.8 8.5-.9 1.1-7.5 9.4-14.6 18.5s-13.2 16.7-13.5 17c-.7.6-7.7 9.4-27.9 35-8.9 11.3-17.5 22.1-19 24-1.6 1.9-14.6 18.3-29 36.5-14.4 18.1-27.5 34.6-29 36.5-1.6 1.9-5.4 6.8-8.5 10.7l-5.7 7.3h127c101 0 127.1-.3 127.2-1.3.3-6 0-26.9-.4-27.4-.3-.3-43.3-.5-95.6-.6h-95l3.2-4c16.5-20.8 33.9-42.8 43.7-55.2 6.5-8.3 19.3-24.5 28.5-36 9.2-11.6 17.7-22.3 18.8-23.8 1.2-1.6 2.7-3.4 3.2-4 .6-.7 8-10 16.6-20.7 28.9-36.4 39.8-51.3 48.6-66.5 6.8-11.7 7.8-13.7 11.7-22.7 8.7-20.5 11.5-33.6 11.1-52.6-.2-7.6-.6-15.1-.9-16.7-.3-1.7-.8-4.6-1.1-6.5-.6-3.4-2.4-10.4-5-18.5-3.1-9.7-10-22.3-17.5-32.1-15.7-20.3-39.5-34.8-67.5-41.1-15.6-3.5-41.3-4.1-57-1.4zM641 34.1c-1.9.4-5.1 1-7 1.3-1.9.3-6.9 1.5-11 2.6-60.5 17-100.9 75.1-113.5 163.5-3.6 25.6-4.1 72.4-1 95.5.3 1.9.8 5.3 1.1 7.5.3 2.2.7 5.6 1 7.5.4 3 3.4 17.4 6.4 30.5 4 17.3 14.6 43 25 60.6 8.1 13.6 14.3 21.5 25.4 32.4 19 18.6 40.1 29.7 66.6 35.2 6.4 1.3 13.1 1.7 27 1.7 10.2 0 20.1-.3 22-.7 1.9-.3 5.3-.8 7.5-1.2 5.8-1 18.9-5.2 26.8-8.6 30.9-13.5 56.5-41 73.7-78.9 3.6-8.1 12.3-32.4 13.5-37.8.2-.9 1.5-6.7 2.9-12.7 1.4-6.1 2.8-12.8 3.1-15 .3-2.2.8-4.9 1-6 .1-1.1.6-4.5 1-7.5s.9-6.6 1.1-8c1.8-11.6 2.5-54.5 1.1-73.5-.7-9.9-.9-11.2-2.3-21-.4-2.8-.8-6-1-7.1-.5-4.4-1.5-10-1.9-11.4-.2-.8-.6-2.6-.9-4-1.7-10.2-6.8-28.4-11.2-40.5-7.3-20.1-18.8-41-30.4-55.6-10.1-12.8-26.9-26.9-41-34.6-11.6-6.2-31.2-12.6-44-14.3-4.9-.6-38.1-.6-41 .1zm44 32.8c49.8 12.3 83.2 61.2 94.5 138.6.4 2.2.8 5.1 1 6.5 2.5 15.1 2.5 73.5 0 81.3-.2.6-.6 3.4-.9 6.2-2 18.4-9 45.5-16.4 64-6 14.9-18.5 35.1-28.4 45.9-13.4 14.8-34.1 26.9-51.3 30.2-2.2.4-4.7.9-5.5 1.1-.8.2-6.9.5-13.5.7-14.1.5-22.3-.6-34.5-4.6-21.3-6.8-40.6-22.4-55.3-44.6-9.2-13.7-17.7-32.4-23-50.2-3.4-11.6-7.2-27.6-8.2-35.5-.2-1.1-.6-4-1-6.5-2.2-14.1-3.2-32.6-2.9-52.5.1-12.1.5-23.1.8-24.5.2-1.4.7-5.4 1.1-9 .3-3.6.7-7.2 1-8 .2-.8.6-3.8 1-6.5 1.7-14.2 8.5-38.6 15.2-55 16.1-39.6 40.7-65.5 72-75.5 5-1.6 12-3.3 15.5-3.8 10.6-1.5 29.3-.7 38.8 1.7zM594.5 528.5c-12.5 2.3-20.6 4.5-28.4 7.6-37.3 14.9-65.2 45-78.5 85-4.9 14.6-6.9 26.9-7 42.9-.1 16 .6 22.4 3.8 35.1 13.5 52.9 54.7 91.2 108.1 100.4 8.4 1.4 34.9 1.4 43.5 0 8.7-1.5 20.1-4.6 25.5-7 6.7-3 10.5-4.4 10.5-3.9 0 .3-.8 1.8-1.9 3.2-1 1.5-2.8 4.3-3.8 6.2-2.1 3.6-10.4 17.6-63.1 106-16.2 27.2-29.6 49.8-29.8 50.1-.2.4 3.1 2.9 7.4 5.5 4.2 2.6 9.1 5.8 10.7 7 7.6 5.5 6 6.8 20.3-17.3 7.1-12 13.7-23.2 14.6-24.8.9-1.7 2.5-4.5 3.6-6.3 1.1-1.7 10.6-17.9 21.1-36 10.5-18 20-34.3 21.2-36.2 7.4-12.7 12.2-20.9 13.7-23.5.9-1.7 7.6-13.3 14.8-25.8 7.3-12.6 13.2-23 13.2-23.3 0-.2 1.1-2.2 2.5-4.3 4.1-6.6 16.4-29.1 19.9-36.6 5.6-11.7 11.2-28.2 13.1-38.7.3-1.3.7-3.4 1-4.8.2-1.4.7-3.9 1-5.5.4-1.7.8-9.3.9-17 1.1-53.1-29-103.8-74.8-125.9-6-2.9-24.1-9.8-24.9-9.4-.1 0-2.7-.4-5.7-1.1-3-.6-7.6-1.5-10.3-2-7-1.3-34.2-1-42.2.4zm47.9 32.9c33.8 8.8 60.1 33.2 71.2 66.3 2.5 7.3 2.9 8.8 3.9 13.9 2.7 12.6 2.7 36.3 0 48.9-6.1 28.9-23.4 52.9-47.8 66.4-30.8 17-74.5 17-105.4.1-26.4-14.6-46-43.3-49.9-73.7-1-7.5-1.1-27.2-.2-34.3 5.3-40.1 31.9-73 69.2-85.5 17.8-6 41-6.8 59-2.1zM288.2 578.7c-30.9 24.7-56.1 45-56.1 45.3-.1.9 18.1 24 18.9 24 .5 0 4.3-2.8 8.7-6.3 4.3-3.4 13-10.3 19.3-15.2 6.3-4.9 12.2-9.5 13-10.2.8-.7 11.6-9.2 24-18.9l22.5-17.7.3 190.2.2 190.1h31.8V747l.1-213h-26.6l-56.1 44.7z"/></svg>